<svg width="151" height="22" viewBox="0 0 151 22" fill="none" xmlns="http://www.w3.org/2000/svg">
<path d="M11.55 21.84C9.89 21.84 8.35 21.58 6.93 21.06C5.53 20.52 4.31 19.76 3.27 18.78C2.25 17.8 1.45 16.65 0.869996 15.33C0.289996 13.99 -4.21703e-06 12.52 -4.21703e-06 10.92C-4.21703e-06 9.32 0.289996 7.86 0.869996 6.54C1.45 5.2 2.25 4.04 3.27 3.06C4.31 2.08 5.53 1.33 6.93 0.810001C8.35 0.270001 9.89 5.96046e-07 11.55 5.96046e-07C13.49 5.96046e-07 15.22 0.340001 16.74 1.02C18.28 1.7 19.56 2.68 20.58 3.96L16.8 7.38C16.12 6.58 15.37 5.97 14.55 5.55C13.75 5.13 12.85 4.92 11.85 4.92C10.99 4.92 10.2 5.06 9.48 5.34C8.76 5.62 8.14 6.03 7.62 6.57C7.12 7.09 6.72 7.72 6.42 8.46C6.14 9.2 6 10.02 6 10.92C6 11.82 6.14 12.64 6.42 13.38C6.72 14.12 7.12 14.76 7.62 15.3C8.14 15.82 8.76 16.22 9.48 16.5C10.2 16.78 10.99 16.92 11.85 16.92C12.85 16.92 13.75 16.71 14.55 16.29C15.37 15.87 16.12 15.26 16.8 14.46L20.58 17.88C19.56 19.14 18.28 20.12 16.74 20.82C15.22 21.5 13.49 21.84 11.55 21.84ZM23.2284 21.42V0.420001H29.1684V21.42H23.2284ZM33.3944 21.42V0.420001H38.2844L49.8644 14.4H47.5545V0.420001H53.3745V21.42H48.4844L36.9044 7.44H39.2144V21.42H33.3944Z" fill="url(#paint0_linear_169_1168)"/>
<path d="M71.6044 0.420001H77.5444V21.42H71.6044V0.420001ZM63.5044 21.42H57.5644V0.420001H63.5044V21.42ZM72.0244 13.23H63.0844V8.31H72.0244V13.23ZM87.1943 8.55H96.9443V12.99H87.1943V8.55ZM87.6143 16.83H98.5943V21.42H81.7343V0.420001H98.2043V5.01H87.6143V16.83ZM106.361 21.42V5.13H99.9105V0.420001H118.721V5.13H112.301V21.42H106.361ZM120.934 21.42V0.420001H126.874V21.42H120.934ZM141.57 21.84C139.91 21.84 138.37 21.58 136.95 21.06C135.55 20.52 134.33 19.76 133.29 18.78C132.27 17.8 131.47 16.65 130.89 15.33C130.31 13.99 130.02 12.52 130.02 10.92C130.02 9.32 130.31 7.86 130.89 6.54C131.47 5.2 132.27 4.04 133.29 3.06C134.33 2.08 135.55 1.33 136.95 0.810001C138.37 0.270001 139.91 5.96046e-07 141.57 5.96046e-07C143.51 5.96046e-07 145.24 0.340001 146.76 1.02C148.3 1.7 149.58 2.68 150.6 3.96L146.82 7.38C146.14 6.58 145.39 5.97 144.57 5.55C143.77 5.13 142.87 4.92 141.87 4.92C141.01 4.92 140.22 5.06 139.5 5.34C138.78 5.62 138.16 6.03 137.64 6.57C137.14 7.09 136.74 7.72 136.44 8.46C136.16 9.2 136.02 10.02 136.02 10.92C136.02 11.82 136.16 12.64 136.44 13.38C136.74 14.12 137.14 14.76 137.64 15.3C138.16 15.82 138.78 16.22 139.5 16.5C140.22 16.78 141.01 16.92 141.87 16.92C142.87 16.92 143.77 16.71 144.57 16.29C145.39 15.87 146.14 15.26 146.82 14.46L150.6 17.88C149.58 19.14 148.3 20.12 146.76 20.82C145.24 21.5 143.51 21.84 141.57 21.84Z" fill="#9747FF"/>
<defs>
<linearGradient id="paint0_linear_169_1168" x1="-1.02" y1="13.42" x2="178.98" y2="13.42" gradientUnits="userSpaceOnUse">
<stop offset="0.0625" stop-color="#999999"/>
<stop offset="0.4375" stop-color="#9747FF"/>
</linearGradient>
</defs>
</svg>
