<svg width="16" height="18" viewBox="0 0 16 18" fill="none" xmlns="http://www.w3.org/2000/svg">
<path d="M3.90712 2.80203L3.07379 3.45249C1.8099 4.43901 1.17796 4.93227 0.83901 5.62777C0.500061 6.32327 0.500061 7.12671 0.500061 8.73358V10.4763C0.500061 13.6301 0.500061 15.2071 1.47637 16.1869C2.45268 17.1667 4.02403 17.1667 7.16673 17.1667H8.83339C11.9761 17.1667 13.5474 17.1667 14.5237 16.1869C15.5001 15.2071 15.5001 13.6301 15.5001 10.4763V8.73358C15.5001 7.12671 15.5001 6.32327 15.1611 5.62777C14.8222 4.93227 14.1902 4.43901 12.9263 3.45249L12.093 2.80203C10.1268 1.26734 9.14375 0.5 8.00006 0.5C6.85637 0.5 5.87329 1.26734 3.90712 2.80203Z" stroke="white" stroke-linejoin="round"/>
</svg>
