<svg width="20" height="15" viewBox="0 0 20 15" fill="none" xmlns="http://www.w3.org/2000/svg">
<path d="M19.0205 2.56859C18.4185 2.28178 17.7229 2.36723 17.2078 2.79157L15.6332 4.08912C15.321 4.34647 15.2751 4.8101 15.5307 5.12638C15.7863 5.43972 16.2478 5.48687 16.561 5.22854L18.1356 3.93098C18.238 3.84651 18.3424 3.87499 18.3941 3.89955C18.4478 3.92607 18.5366 3.98795 18.5366 4.12547V10.8745C18.5366 11.012 18.4478 11.0739 18.3941 11.1005C18.3424 11.126 18.238 11.1535 18.1346 11.069L14.4059 7.99457V4.08716C14.4059 1.68064 12.6888 0 10.2302 0H4.17561C1.71707 0 0 1.68064 0 4.08716V10.9236C0 13.3233 1.71317 15 4.16585 15C4.56976 15 4.89756 14.67 4.89756 14.2633C4.89756 13.8567 4.56976 13.5266 4.16585 13.5266C2.49854 13.5266 1.46341 12.5296 1.46341 10.9236V4.08716C1.46341 2.4743 2.50244 1.47338 4.17561 1.47338H10.2302C11.9034 1.47338 12.9424 2.4743 12.9424 4.08716V10.9236C12.9424 12.5296 11.9034 13.5266 10.2302 13.5266H8.54342C8.13951 13.5266 7.81171 13.8567 7.81171 14.2633C7.81171 14.67 8.13951 15 8.54342 15H10.2302C12.6888 15 14.4059 13.3233 14.4059 10.9236V9.89916L17.2078 12.2084C17.52 12.4668 17.8995 12.5994 18.2839 12.5994C18.5327 12.5994 18.7834 12.5444 19.0205 12.4314C19.6244 12.1436 20 11.5474 20 10.8745V4.12547C20 3.45262 19.6244 2.85639 19.0205 2.56859" fill="white"/>
</svg>
